PathFileType	4	(X/Y/Z)	C:/Users/beibeiliu/ov580/test_trc\sequence.20_training_dense_right.trc
DataRate	CameraRate	NumFrames	NumMarkers	Units	OrigDataRate	OrigDataStartFrame	OrigNumFrames
120	120	15	19	mm	120	253	336
Frame#	Time	ThumbCMC			ThumbMCP			ThumbIP			ThumbTip			IndexMCP			IndexPIP			IndexTip			MiddleMCP			MiddlePIP			MiddleTip			RingMCP			RingPIP			RingTip			PinkyMCP			PinkyPIP			PinkyTip			BackHand1			BackHand2			BackHand3	
		X0	Y0	Z0	X1	Y1	Z1	X2	Y2	Z2	X3	Y3	Z3	X4	Y4	Z4	X5	Y5	Z5	X6	Y6	Z6	X7	Y7	Z7	X8	Y8	Z8	X9	Y9	Z9	X10	Y10	Z10	X11	Y11	Z11	X12	Y12	Z12	X13	Y13	Z13	X14	Y14	Z14	X15	Y15	Z15	X16	Y16	Z16	X17	Y17	Z17	X18	Y18	Z18	
252	2.1	192.687	73.8505	56.3161	184.113	87.7989	29.2161	182.504	98.8508	10.4394	186.529	106.764	-7.66809	225.107	129.166	45.7248	223.623	152.467	27.6035	215.59	160.536	1.78632	245.642	126.916	40.4704	253.972	147.003	23.3053	245.557	156.561	-7.58347	257.82	111.725	34.1944	265.844	130.977	17.7489	257.948	142.087	-5.47039	266.371	93.7596	29.396	278.346	105.299	15.3211	281.332	118.6	-1.44656	249.849	75.8426	58.8249	244.722	54.1762	69.9877	226.335	79.2885	72.0736	
253	2.10833	191.088	73.8179	55.798	183.279	81.1895	30.9758	178.569	99.0334	9.06714	179.689	108.693	-9.41895	214.56	130.885	47.454	213.933	152.761	30.0987	207.91	160.16	7.63498	237.058	129.109	42.1669	245.043	152.066	22.2764	237.285	160.571	-4.85889	255.2	114.839	35.6501	257.64	133.765	20.6123	250.935	145.162	-2.55891	265.321	94.2507	29.6341	272.569	109.515	19.5092	276.561	124.059	2.14299	246.142	78.5494	57.2	240.315	57.7721	73.2865	223.314	78.8587	73.4418	
254	2.11667	190.76	68.1434	56.1865	182.683	79.8262	29.1454	178.819	94.2768	11.2501	182.433	106.209	-7.94013	211.82	132.65	45.9059	209.719	149.93	30.5352	199.032	159.962	3.36638	231.382	129.034	43.59	236.123	153.623	25.4076	230.677	161.254	-4.58013	249.319	117.079	36.9413	251.297	138.464	21.1871	244.177	147.205	-2.71573	263.932	96.6244	31.3384	266.707	117.095	19.0948	268.68	127.63	4.39098	245.215	77.0371	59.5317	238.179	60.6839	72.7756	217.732	77.8484	74.1708	
255	2.125	186.782	64.7647	57.148	178.845	79.7104	28.3553	172.835	92.0517	9.42323	175.479	104.874	-10.5121	204.394	127.433	48.0381	200.679	150.64	31.1492	193.898	159.229	4.10912	227.224	130.875	43.8859	230.084	153.236	27.2012	225.551	161.892	1.77675	243.496	115.472	37.97	246.359	140.879	19.9833	238.853	147.875	0.964479	260.263	98.2877	32.6389	264.72	116.461	20.5502	264.822	130.228	7.52196	240.765	81.0678	58.7788	237.328	57.1425	74.3451	213.345	78.756	73.3798	
256	2.13333	187.376	66.2262	55.9164	178.67	75.4576	28.3692	173.912	89.1509	10.3235	175.728	98.9862	-6.37267	200.644	127.744	46.7242	194.502	147.953	33.3167	188.91	156.478	7.54581	224.311	127.251	44.689	225.304	152.482	27.8162	217.83	163.331	0.860376	236.815	121.307	39.2647	242.852	138.499	22.3478	234.305	149.306	2.52834	256.864	102.94	33.3124	258.703	119.969	21.2259	262.096	131.295	9.80953	235.557	81.1162	61.9154	235.3	60.9831	75.5321	215.01	75.6584	75.9595	
257	2.14167	183.505	60.0813	57.0549	179.099	71.3579	29.3152	171.696	83.0508	10.2334	174.3	97.438	-7.44935	192.33	126.354	47.3733	191.627	147.045	28.453	184.632	153.929	7.12702	215.69	129.509	46.1341	217.474	151.343	29.8413	214.189	162.198	1.16831	233.015	119.949	40.5837	235.997	140.508	23.1534	228.617	149.871	3.81914	252.539	102.487	34.2097	256.722	118.165	24.0053	259.11	135.001	7.68568	235.18	83.1487	60.4825	235.807	61.1693	75.7479	211.521	74.1531	75.3222	
258	2.15	185.342	57.1515	56.2253	173.147	69.8612	27.3058	170.585	81.4055	9.58729	171.054	94.6097	-10.1623	192.641	122.951	48.2923	187.194	145.594	29.1829	182.867	151.284	8.84755	216.415	127.565	44.5214	211.589	153.474	27.5231	209.692	161.372	0.180082	234.863	121.347	39.2839	231.72	141.738	23.6359	225.123	149.773	0.0471983	247.824	100.76	35.4601	257.096	119.944	22.7966	254.078	136.517	8.8128	233.099	82.0695	63.5839	237.661	61.0508	73.5314	208.555	75.5153	76.3248	
259	2.15833	183.632	56.1548	55.9999	176.507	67.3629	27.4338	170.647	78.9176	9.71789	168.897	89.2411	-8.9904	185.742	122.652	47.6523	180.622	141.557	30.1989	174.172	149.69	5.66928	213.118	129.303	43.4364	206.373	150.467	28.3174	208.392	159.59	2.52402	227.194	117.551	41.1092	228.569	137.341	25.6526	219.628	147.948	4.20001	249.759	103.41	35.921	252.87	122.557	22.7591	252.585	135.98	11.681	233.737	83.5099	61.8885	237.004	57.097	73.615	205.288	70.9335	75.764	
260	2.16667	181.992	51.1945	55.3934	174.86	60.2712	29.055	166.137	73.8617	9.29896	164.126	86.3774	-11.1155	185.934	120.324	45.7433	180.286	137.97	30.8637	170.903	145.824	5.04203	208.163	122.314	44.6584	204.554	147.66	29.3041	200.827	157.527	2.04869	224.058	117.272	40.1007	221.903	138.634	24.7506	215.988	147.334	2.35321	247.025	103.531	36.0172	249.726	119.529	25.2487	249.297	134.25	11.2709	231.58	77.5121	61.3357	233.212	56.2313	74.3072	206.571	72.9514	74.2422	
261	2.175	183.624	47.4684	55.3795	172.603	59.4287	26.1573	166.97	73.5203	6.94246	168.087	84.9213	-10.6171	180.49	114.048	46.0121	170.11	132.281	32.6273	166.7	141.239	6.79219	201.131	122.522	44.5683	200.433	144.282	27.1361	193.343	154.76	-0.777566	221.148	116.596	40.1936	220.062	134.898	25.7407	209.528	144.751	1.40666	240.337	98.1393	36.7183	245.571	119.171	25.828	239.67	136.409	10.4416	228.294	78.3596	61.6445	228.667	55.1385	74.3381	203.242	66.9556	73.2504	
262	2.18333	180.911	47.2726	53.0202	172.44	51.7498	26.1604	163.396	64.9764	7.16689	164.023	78.2803	-11.6352	175.422	112.835	44.3442	170.177	129.683	29.101	163.602	138.755	5.53371	200.818	120.028	42.7151	195.118	143.783	25.4881	191.289	151.747	0.818911	218.181	112.347	40.5765	212.527	134.311	23.7963	208.217	142.696	0.11673	238.691	100.108	36.3026	240.627	118.398	27.2639	239.208	132.448	13.4351	229.031	74.2455	61.7361	230.626	55.621	76.0294	202.126	68.3387	73.2677	
263	2.19167	180.952	45.8135	51.5656	171.965	51.7988	24.8608	164.858	66.6407	4.60954	162.307	75.9239	-13.0479	172.477	109.228	44.3145	162.169	126.612	28.4654	158.13	134.282	7.79147	198.375	115.944	43.2039	192.349	138.885	28.1241	184.771	149.712	0.388733	215.21	111.954	41.0688	213.88	132.97	24.4448	207.647	139.864	2.24517	237.861	97.8868	37.3173	238.305	117.438	25.9487	235.558	133.227	14.2181	224.639	73.9944	62.5701	228.367	53.7596	76.7619	200.199	62.1833	72.1939	
264	2.2	179.475	39.4028	53.1594	173.424	48.4131	25.8636	164.273	64.1046	4.38593	165.256	72.9893	-11.8214	172.478	108.36	42.9013	161.681	123.123	28.4311	159.51	132.213	5.44577	196.885	116.298	42.3365	191.399	139.147	26.1136	185.837	147.983	-3.2805	217.29	110.066	40.6265	208.573	131.339	24.2829	204.935	138.253	-2.06776	234.664	97.7371	37.362	236.086	117.83	26.8041	231.549	133.713	10.3213	227.11	72.9976	62.0062	226.479	54.8203	74.6267	199.79	61.724	72.1364	
265	2.20833	182.77	43.5893	51.9069	171.755	50.007	24.0118	162.516	62.3782	3.68804	161.59	73.4758	-15.9541	174.026	106.486	42.4094	162.979	123.754	26.9884	157.174	131.118	1.316	194.137	118.125	41.0729	188.925	136.933	24.8479	187.317	145.93	-3.39354	213.343	111.082	38.6795	209.864	133.065	20.9218	203.009	136.677	1.65634	237.767	100.38	36.2865	235.681	115.524	27.6662	234.54	131.171	8.56119	224.682	77.3667	58.5028	227.825	52.5844	76.5816	198.508	62.9431	72.2543	
266	2.21667	179.161	42.3104	49.8137	173.391	47.4085	23.3332	166.138	59.3622	5.05855	160.693	69.9916	-18.2989	174.504	102.851	40.6286	160.383	123.015	21.0539	158.14	128.675	-1.88562	193.86	117.238	37.6218	186.275	137.747	20.7973	180.947	144.659	-5.31317	210.117	110.511	37.2356	211.043	129.763	20.8987	201.723	136.464	-3.6747	232.709	96.6399	35.2354	238.446	116.708	23.4491	230.393	133.232	8.06812	223.62	76.5278	59.6541	226.866	57.2672	71.7691	200.331	62.0358	69.2036	
